<?xml version="1.0" encoding="utf-8"?>
<!-- Generator: Adobe Illustrator 18.1.1, SVG Export Plug-In . SVG Version: 6.00 Build 0)  -->
<svg version="1.1" id="Layer_1" xmlns="http://www.w3.org/2000/svg" xmlns:xlink="http://www.w3.org/1999/xlink" x="0px" y="0px"
	 viewBox="0 0 1000 800" enable-background="new 0 0 1000 800" xml:space="preserve">
<g>
	<path fill="#2A2A2A" d="M639.2,746.6H264.6c-6.6,0-12-5.4-12-12V93.3c0-6.6,5.4-12,12-12h374.6c6.6,0,12,5.4,12,12v641.3
		C651.2,741.2,645.8,746.6,639.2,746.6z"/>
</g>
<g>
	<path fill="#FFFFFF" d="M621.8,667.4H281.9c-6.6,0-12-5.4-12-12V115.6c0-6.6,5.4-12,12-12h339.9c6.6,0,12,5.4,12,12v539.9
		C633.8,662,628.4,667.4,621.8,667.4z"/>
	<g>
		<path fill="#231F20" d="M621.8,664.9c-18.6,0-37.2,0-55.8,0c-40.2,0-80.5,0-120.7,0c-39.1,0-78.2,0-117.3,0c-12,0-24.1,0-36.1,0
			c-7.8,0-18.8,1.6-19.6-9.5c-0.8-13,0-26.4,0-39.4c0-32,0-64.1,0-96.1c0-41.6,0-83.3,0-124.9c0-42.3,0-84.6,0-126.9
			c0-34,0-68,0-102.1c0-16.4-0.3-32.9,0-49.3c0.1-5.7,3.3-10.3,9.5-10.7c1.4-0.1,2.9,0,4.3,0c9.7,0,19.4,0,29.1,0
			c37.2,0,74.4,0,111.6,0c41.5,0,82.9,0,124.4,0c23,0,46.1-0.4,69.1,0c5.8,0.1,10.5,3.3,10.9,9.6c0.1,1.1,0,2.2,0,3.2
			c0,6.8,0,13.6,0,20.5c0,28.2,0,56.4,0,84.6c0,40.3,0,80.5,0,120.8c0,43,0,85.9,0,128.9c0,36.8,0,73.5,0,110.3
			c0,21.6,0,43.2,0,64.7C631.3,655.6,631.9,664.4,621.8,664.9c-3.2,0.2-3.2,5.2,0,5c8.3-0.5,14.3-6.6,14.5-14.9c0-1.5,0-3,0-4.5
			c0-7.7,0-15.5,0-23.2c0-30.1,0-60.1,0-90.2c0-41.6,0-83.1,0-124.7c0-43.5,0-87,0-130.5c0-35.9,0-71.8,0-107.7
			c0-18.7,0-37.4,0-56.1c0-9.2-5-16.9-15.1-17.1c-7.1-0.2-14.2,0-21.3,0c-35.1,0-70.3,0-105.4,0c-42.9,0-85.9,0-128.8,0
			c-26.6,0-53.2,0-79.9,0c-1.7,0-3.5-0.1-5.1,0.1c-7.8,0.8-13,7.3-13.2,14.9c-0.1,4.8,0,9.6,0,14.3c0,25.9,0,51.7,0,77.6
			c0,39.7,0,79.3,0,119c0,43.9,0,87.8,0,131.7c0,38.6,0,77.2,0,115.8c0,23.7,0,47.4,0,71.1c0,3.7-0.3,7.5,0.1,11.2
			c0.8,8,7.4,13.1,15.1,13.2c2.5,0,5,0,7.4,0c29.7,0,59.3,0,89,0c43.3,0,86.5,0,129.8,0c32.7,0,65.5,0,98.2,0c4.9,0,9.8,0,14.7,0
			C625,669.9,625,664.9,621.8,664.9z"/>
	</g>
</g>
<g>
	<circle fill="#2A2A2A" cx="451.2" cy="707.7" r="33.3"/>
	<g>
		<path fill="#231F20" d="M483.1,708.1c-0.3,13.2-8.1,25.9-20.8,30.6c-13.7,5-29.3-0.8-37.3-12.7c-16.6-24.6,7.1-60.1,36.6-49
			C474.6,681.9,482.8,694.4,483.1,708.1c0,0.4,2.9,0,2.9-0.8c-0.3-15.3-10.6-28.8-25.6-32.5c-12.8-3.2-27.2,1.4-35.8,11.3
			c-9.9,11.5-10.8,28.7-2.1,41.1c8.2,11.7,22.9,16.6,36.6,13.3c15.5-3.8,26.5-17.2,26.9-33.2C486,707,483.1,707.3,483.1,708.1z"/>
	</g>
</g>
</svg>
