<?xml version="1.0" encoding="utf-8"?>
<!-- Generator: Adobe Illustrator 18.1.1, SVG Export Plug-In . SVG Version: 6.00 Build 0)  -->
<svg version="1.1" id="Layer_1" xmlns="http://www.w3.org/2000/svg" xmlns:xlink="http://www.w3.org/1999/xlink" x="0px" y="0px"
	 viewBox="0 0 500 500" enable-background="new 0 0 500 500" xml:space="preserve">
<g>
	<g>
		<path fill="#FFFFFF" d="M227.5,69c0,31.6,0,63.2,0,94.8c0,49.9,0,99.9,0,149.8c0,11.5,0,23,0,34.4c0,11.8,10.3,23,22.5,22.5
			c12.2-0.5,22.5-9.9,22.5-22.5c0-31.6,0-63.2,0-94.8c0-49.9,0-99.9,0-149.8c0-11.5,0-23,0-34.4c0-11.8-10.3-23-22.5-22.5
			C237.8,47,227.5,56.4,227.5,69L227.5,69z"/>
	</g>
</g>
<g>
	<g>
		<path fill="#FFFFFF" d="M227.5,348c0,22.3,0,44.7,0,67c0,11.8,10.3,23,22.5,22.5c12.2-0.5,22.5-9.9,22.5-22.5c0-22.3,0-44.7,0-67
			c0-11.8-10.3-23-22.5-22.5C237.8,326,227.5,335.4,227.5,348L227.5,348z"/>
	</g>
</g>
<g>
	<g>
		<path fill="#FFFFFF" d="M265.9,399.1c-14.8-13.3-29.6-26.6-44.3-39.9c-23.4-21.1-46.9-42.2-70.3-63.3c-5.4-4.9-10.9-9.8-16.3-14.7
			c-8.7-7.9-23.3-9.3-31.8,0c-7.9,8.6-9.3,23.4,0,31.8c14.8,13.3,29.6,26.6,44.3,39.9c23.4,21.1,46.9,42.2,70.3,63.3
			c5.4,4.9,10.9,9.8,16.3,14.7c8.7,7.9,23.3,9.3,31.8,0C273.8,422.3,275.2,407.5,265.9,399.1L265.9,399.1z"/>
	</g>
</g>
<g>
	<g>
		<path fill="#FFFFFF" d="M265.9,430.9c14.2-13.3,28.4-26.6,42.5-39.8c22.6-21.2,45.2-42.4,67.8-63.5c5.2-4.9,10.4-9.8,15.6-14.6
			c8.6-8.1,8.8-23.8,0-31.8c-9.2-8.5-22.6-8.6-31.8,0c-14.2,13.3-28.4,26.6-42.5,39.8c-22.6,21.2-45.2,42.4-67.8,63.5
			c-5.2,4.9-10.4,9.8-15.6,14.6c-8.6,8.1-8.8,23.8,0,31.8C243.3,439.4,256.7,439.5,265.9,430.9L265.9,430.9z"/>
	</g>
</g>
</svg>
