<?xml version="1.0" encoding="utf-8"?>
<!-- Generator: Adobe Illustrator 18.1.1, SVG Export Plug-In . SVG Version: 6.00 Build 0)  -->
<svg version="1.1" id="Layer_1" xmlns="http://www.w3.org/2000/svg" xmlns:xlink="http://www.w3.org/1999/xlink" x="0px" y="0px"
	 viewBox="0 0 500 500" enable-background="new 0 0 500 500" xml:space="preserve">
<g>
	<g>
		<path fill="#9A9A9A" d="M420.5,222c-31.6,0-63.2,0-94.8,0c-49.9,0-99.9,0-149.8,0c-11.5,0-23,0-34.4,0c-11.8,0-23,10.3-22.5,22.5
			c0.5,12.2,9.9,22.5,22.5,22.5c31.6,0,63.2,0,94.8,0c49.9,0,99.9,0,149.8,0c11.5,0,23,0,34.4,0c11.8,0,23-10.3,22.5-22.5
			C442.5,232.3,433.1,222,420.5,222L420.5,222z"/>
	</g>
</g>
<g>
	<g>
		<path fill="#9A9A9A" d="M141.5,222c-22.3,0-44.7,0-67,0c-11.8,0-23,10.3-22.5,22.5c0.5,12.2,9.9,22.5,22.5,22.5
			c22.3,0,44.7,0,67,0c11.8,0,23-10.3,22.5-22.5C163.5,232.3,154.1,222,141.5,222L141.5,222z"/>
	</g>
</g>
<g>
	<g>
		<path fill="#9A9A9A" d="M90.4,260.4c13.3-14.8,26.6-29.6,39.9-44.3c21.1-23.4,42.2-46.9,63.3-70.3c4.9-5.4,9.8-10.9,14.7-16.3
			c7.9-8.7,9.3-23.3,0-31.8c-8.6-7.9-23.4-9.3-31.8,0c-13.3,14.8-26.6,29.6-39.9,44.3c-21.1,23.4-42.2,46.9-63.3,70.3
			c-4.9,5.4-9.8,10.9-14.7,16.3c-7.9,8.7-9.3,23.3,0,31.8C67.2,268.3,82,269.7,90.4,260.4L90.4,260.4z"/>
	</g>
</g>
<g>
	<g>
		<path fill="#9A9A9A" d="M58.6,260.4c13.3,14.2,26.6,28.4,39.8,42.5c21.2,22.6,42.4,45.2,63.5,67.8c4.9,5.2,9.8,10.4,14.6,15.6
			c8.1,8.6,23.8,8.8,31.8,0c8.5-9.2,8.6-22.6,0-31.8c-13.3-14.2-26.6-28.4-39.8-42.5c-21.2-22.6-42.4-45.2-63.5-67.8
			c-4.9-5.2-9.8-10.4-14.6-15.6c-8.1-8.6-23.8-8.8-31.8,0C50.1,237.8,50,251.2,58.6,260.4L58.6,260.4z"/>
	</g>
</g>
</svg>
