<?xml version="1.0" encoding="utf-8"?>
<!-- Generator: Adobe Illustrator 18.1.1, SVG Export Plug-In . SVG Version: 6.00 Build 0)  -->
<svg version="1.1" id="Layer_1" xmlns="http://www.w3.org/2000/svg" xmlns:xlink="http://www.w3.org/1999/xlink" x="0px" y="0px"
	 viewBox="250 -250 1000 1000" enable-background="new 250 -250 1000 1000" xml:space="preserve">
<path fill="#9A9A9A" d="M445.9-249.8C338.2-249.8,250-161.6,250-53.9V554c0,107.7,88.2,195.8,195.9,195.8h607.8
	c107.7,0,195.8-88.1,195.8-195.8V-53.9c0-107.7-88.1-195.9-195.8-195.9L445.9-249.8L445.9-249.8z M495.1-84.8
	c51.6,0,83.5,33.9,84.4,78.5c0,43.6-32.8,78.4-85.4,78.4h-1c-50.7,0-83.4-34.9-83.4-78.4C409.8-50.9,443.5-84.8,495.1-84.8
	L495.1-84.8z M940.2,123.5c99.3,0,173.8,64.9,173.8,204.4v260.4h-151v-243c0-61.1-21.8-102.7-76.5-102.7
	c-41.7,0-66.6,28.1-77.5,55.2c-4,9.7-5,23.3-5,36.8v253.7h-151c0,0,2-411.6,0-454.2h151v64.3C824.2,167.5,860.1,123.5,940.2,123.5
	L940.2,123.5z M418.7,134.2h151v454.2h-151V134.2L418.7,134.2z"/>
</svg>
