<?xml version="1.0" encoding="utf-8"?>
<!-- Generator: Adobe Illustrator 18.1.1, SVG Export Plug-In . SVG Version: 6.00 Build 0)  -->
<svg version="1.1" id="Layer_1" xmlns="http://www.w3.org/2000/svg" xmlns:xlink="http://www.w3.org/1999/xlink" x="0px" y="0px"
	 viewBox="0 0 500 500" enable-background="new 0 0 500 500" xml:space="preserve">
<g>
	<line fill="#9A9A9A" stroke="#9A9A9A" stroke-miterlimit="10" x1="34" y1="111" x2="463" y2="111"/>
	<g>
		<path fill="#9A9A9A" stroke="#9A9A9A" stroke-miterlimit="10" d="M34,131c14.3,0,28.6,0,42.8,0c34.1,0,68.2,0,102.3,0
			c41.2,0,82.5,0,123.7,0c35.8,0,71.6,0,107.4,0c17.3,0,34.7,0.5,52,0c0.2,0,0.5,0,0.7,0c10.5,0,20.5-9.2,20-20s-8.8-20-20-20
			c-14.3,0-28.6,0-42.8,0c-34.1,0-68.2,0-102.3,0c-41.2,0-82.5,0-123.7,0c-35.8,0-71.6,0-107.4,0c-17.3,0-34.7-0.5-52,0
			c-0.2,0-0.5,0-0.7,0c-10.5,0-20.5,9.2-20,20C14.5,121.8,22.8,131,34,131L34,131z"/>
	</g>
</g>
<g>
	<line fill="#9A9A9A" stroke="#9A9A9A" stroke-miterlimit="10" x1="34" y1="111" x2="34" y2="372"/>
	<g>
		<path fill="#9A9A9A" stroke="#9A9A9A" stroke-miterlimit="10" d="M14,111c0,29.4,0,58.8,0,88.2c0,46.9,0,93.7,0,140.6
			c0,10.7,0,21.4,0,32.2c0,10.5,9.2,20.5,20,20s20-8.8,20-20c0-29.4,0-58.8,0-88.2c0-46.9,0-93.7,0-140.6c0-10.7,0-21.4,0-32.2
			c0-10.5-9.2-20.5-20-20C23.2,91.5,14,99.8,14,111L14,111z"/>
	</g>
</g>
<g>
	<line fill="#9A9A9A" stroke="#9A9A9A" stroke-miterlimit="10" x1="463" y1="111" x2="463" y2="372"/>
	<g>
		<path fill="#9A9A9A" stroke="#9A9A9A" stroke-miterlimit="10" d="M443,111c0,29.4,0,58.8,0,88.2c0,46.9,0,93.7,0,140.6
			c0,10.7,0,21.4,0,32.2c0,10.5,9.2,20.5,20,20s20-8.8,20-20c0-29.4,0-58.8,0-88.2c0-46.9,0-93.7,0-140.6c0-10.7,0-21.4,0-32.2
			c0-10.5-9.2-20.5-20-20C452.2,91.5,443,99.8,443,111L443,111z"/>
	</g>
</g>
<g>
	<line fill="#9A9A9A" stroke="#9A9A9A" stroke-miterlimit="10" x1="34" y1="372" x2="463" y2="372"/>
	<g>
		<path fill="#9A9A9A" stroke="#9A9A9A" stroke-miterlimit="10" d="M34,392c14.3,0,28.6,0,42.8,0c34.1,0,68.2,0,102.3,0
			c41.2,0,82.5,0,123.7,0c35.8,0,71.6,0,107.4,0c17.3,0,34.7,0.5,52,0c0.2,0,0.5,0,0.7,0c10.5,0,20.5-9.2,20-20s-8.8-20-20-20
			c-14.3,0-28.6,0-42.8,0c-34.1,0-68.2,0-102.3,0c-41.2,0-82.5,0-123.7,0c-35.8,0-71.6,0-107.4,0c-17.3,0-34.7-0.5-52,0
			c-0.2,0-0.5,0-0.7,0c-10.5,0-20.5,9.2-20,20C14.5,382.8,22.8,392,34,392L34,392z"/>
	</g>
</g>
<g>
	<line fill="#9A9A9A" stroke="#9A9A9A" stroke-miterlimit="10" x1="34" y1="111" x2="248.5" y2="258"/>
	<g>
		<path fill="#9A9A9A" stroke="#9A9A9A" stroke-miterlimit="10" d="M23.9,128.3c24.3,16.6,48.6,33.3,72.8,49.9
			c38.4,26.3,76.7,52.6,115.1,78.9c8.9,6.1,17.7,12.1,26.6,18.2c8.7,5.9,22.6,1.9,27.4-7.2c5.4-10.2,2.1-21-7.2-27.4
			c-24.3-16.6-48.6-33.3-72.8-49.9c-38.4-26.3-76.7-52.6-115.1-78.9c-8.9-6.1-17.7-12.1-26.6-18.2c-8.7-5.9-22.6-1.9-27.4,7.2
			C11.4,111.1,14.7,121.9,23.9,128.3L23.9,128.3z"/>
	</g>
</g>
<g>
	<line fill="#9A9A9A" stroke="#9A9A9A" stroke-miterlimit="10" x1="248.5" y1="258" x2="463" y2="111"/>
	<g>
		<path fill="#9A9A9A" stroke="#9A9A9A" stroke-miterlimit="10" d="M258.6,275.3c24.3-16.6,48.6-33.3,72.8-49.9
			c38.4-26.3,76.7-52.6,115.1-78.9c8.9-6.1,17.7-12.1,26.6-18.2c8.6-5.9,13.3-17.8,7.2-27.4c-5.5-8.6-18.1-13.5-27.4-7.2
			c-24.3,16.6-48.6,33.3-72.8,49.9c-38.4,26.3-76.7,52.6-115.1,78.9c-8.9,6.1-17.7,12.1-26.6,18.2c-8.6,5.9-13.3,17.8-7.2,27.4
			C236.8,276.7,249.4,281.6,258.6,275.3L258.6,275.3z"/>
	</g>
</g>
<g>
	<g>
		<path fill="#9A9A9A" stroke="#9A9A9A" stroke-miterlimit="10" d="M48.1,386.1c19.1-16.4,38.2-32.8,57.3-49.2
			c30.3-26,60.6-52,90.9-78c6.9-6,13.9-11.9,20.8-17.9c8-6.8,7.5-21.4,0-28.3c-8.5-7.8-19.8-7.3-28.3,0
			c-19.1,16.4-38.2,32.8-57.3,49.2c-30.3,26-60.6,52-90.9,78c-6.9,6-13.9,11.9-20.8,17.9c-8,6.8-7.5,21.4,0,28.3
			C28.3,393.9,39.6,393.4,48.1,386.1L48.1,386.1z"/>
	</g>
</g>
<g>
	<g>
		<path fill="#9A9A9A" stroke="#9A9A9A" stroke-miterlimit="10" d="M477.1,357.9c-18.6-16.4-37.3-32.8-55.9-49.2
			c-29.6-26-59.1-52-88.7-78c-6.8-6-13.6-12-20.4-17.9c-7.9-6.9-20.7-8.3-28.3,0c-6.9,7.6-8.4,20.9,0,28.3
			c18.6,16.4,37.3,32.8,55.9,49.2c29.6,26,59.1,52,88.7,78c6.8,6,13.6,12,20.4,17.9c7.9,6.9,20.7,8.3,28.3,0
			C484.1,378.6,485.5,365.2,477.1,357.9L477.1,357.9z"/>
	</g>
</g>
</svg>
