<?xml version="1.0" encoding="utf-8"?>
<!-- Generator: Adobe Illustrator 18.1.1, SVG Export Plug-In . SVG Version: 6.00 Build 0)  -->
<svg version="1.1" id="Layer_1" xmlns="http://www.w3.org/2000/svg" xmlns:xlink="http://www.w3.org/1999/xlink" x="0px" y="0px"
	 viewBox="0 0 500 500" enable-background="new 0 0 500 500" xml:space="preserve">
<g>
	<g>
		<path fill="#9A9A9A" d="M74.5,262c31.6,0,63.2,0,94.8,0c49.9,0,99.9,0,149.8,0c11.5,0,23,0,34.4,0c11.8,0,23-10.3,22.5-22.5
			c-0.5-12.2-9.9-22.5-22.5-22.5c-31.6,0-63.2,0-94.8,0c-49.9,0-99.9,0-149.8,0c-11.5,0-23,0-34.4,0c-11.8,0-23,10.3-22.5,22.5
			C52.5,251.7,61.9,262,74.5,262L74.5,262z"/>
	</g>
</g>
<g>
	<g>
		<path fill="#9A9A9A" d="M353.5,262c22.3,0,44.7,0,67,0c11.8,0,23-10.3,22.5-22.5c-0.5-12.2-9.9-22.5-22.5-22.5
			c-22.3,0-44.7,0-67,0c-11.8,0-23,10.3-22.5,22.5C331.5,251.7,340.9,262,353.5,262L353.5,262z"/>
	</g>
</g>
<g>
	<g>
		<path fill="#9A9A9A" d="M404.6,223.6c-13.3,14.8-26.6,29.6-39.9,44.3c-21.1,23.4-42.2,46.9-63.3,70.3c-4.9,5.4-9.8,10.9-14.7,16.3
			c-7.9,8.7-9.3,23.3,0,31.8c8.6,7.9,23.4,9.3,31.8,0c13.3-14.8,26.6-29.6,39.9-44.3c21.1-23.4,42.2-46.9,63.3-70.3
			c4.9-5.4,9.8-10.9,14.7-16.3c7.9-8.7,9.3-23.3,0-31.8C427.8,215.7,413,214.3,404.6,223.6L404.6,223.6z"/>
	</g>
</g>
<g>
	<g>
		<path fill="#9A9A9A" d="M436.4,223.6c-13.3-14.2-26.6-28.4-39.8-42.5c-21.2-22.6-42.4-45.2-63.5-67.8c-4.9-5.2-9.8-10.4-14.6-15.6
			c-8.1-8.6-23.8-8.8-31.8,0c-8.5,9.2-8.6,22.6,0,31.8c13.3,14.2,26.6,28.4,39.8,42.5c21.2,22.6,42.4,45.2,63.5,67.8
			c4.9,5.2,9.8,10.4,14.6,15.6c8.1,8.6,23.8,8.8,31.8,0C444.9,246.2,445,232.8,436.4,223.6L436.4,223.6z"/>
	</g>
</g>
</svg>
