<?xml version="1.0" encoding="utf-8"?>
<!-- Generator: Adobe Illustrator 18.1.1, SVG Export Plug-In . SVG Version: 6.00 Build 0)  -->
<svg version="1.1" id="Layer_1" xmlns="http://www.w3.org/2000/svg" xmlns:xlink="http://www.w3.org/1999/xlink" x="0px" y="0px"
	 viewBox="365 -250 1230 1000" enable-background="new 365 -250 1230 1000" xml:space="preserve">
<path fill="#9A9A9A" d="M365,637c20,2,40,3,60,3c117.3,0,222-36,314-108c-54.7-0.7-103.7-17.3-147-50c-43.3-32.7-73-74.3-89-125
	c13.3,2.7,29,4,47,4c23.3,0,45.7-3,67-9c-58.7-11.3-107.2-40.2-145.5-86.5S414,165.7,414,105v-3c35.3,20,73.7,30.3,115,31
	c-34.7-22.7-62.2-52.5-82.5-89.5S416-33.7,416-77c0-45.3,11.7-87.7,35-127c62.7,78,139.2,140.2,229.5,186.5S867.7,54.7,971,60
	c-4.7-22-7-41.3-7-58c0-69.3,24.7-128.7,74-178c49.3-49.3,109-74,179-74c72.7,0,134,26.7,184,80c58-12,111.3-32.7,160-62
	c-18.7,60.7-55.3,107.3-110,140c48.7-6,96.7-19.3,144-40c-32,50-73.7,93.7-125,131v33c0,67.3-9.8,134.8-29.5,202.5
	s-49.7,132.3-90,194C1310.2,490.2,1262,545,1206,593s-123.2,86.2-201.5,114.5S842,750,752,750C612.7,750,483.7,712.3,365,637z"/>
</svg>
